<svg xmlns="http://www.w3.org/2000/svg" width="16" height="16" viewBox="0 0 16 16" fill="#5396F1">
<path fill-rule="evenodd" clip-rule="evenodd" d="M16 16C16 16 16 14.9 15.9083 14.325C15.8333 13.8708 15.2042 13.2708 12.5292 12.2875C9.89583 11.3208 10.0583 11.7917 10.0583 10.0125C10.0583 8.85833 10.6458 9.52917 11.0208 7.3375C11.1667 6.475 11.2833 7.05 11.6 5.66667C11.7667 4.94167 11.4875 4.8875 11.5208 4.54167C11.5542 4.19583 11.5875 3.8875 11.65 3.17917C11.725 2.30417 10.9125 0 8 0C5.0875 0 4.275 2.30417 4.35417 3.18333C4.41667 3.8875 4.45 4.2 4.48333 4.54583C4.51667 4.89167 4.2375 4.94583 4.40417 5.67083C4.72083 7.05 4.8375 6.475 4.98333 7.34167C5.35833 9.53333 5.94583 8.8625 5.94583 10.0167C5.94583 11.8 6.10833 11.3292 3.475 12.2917C0.8 13.2708 0.166667 13.875 0.0958333 14.3292C0 14.9 0 16 0 16H8H16Z" fill="#5396F1"/>
</svg>