<svg xmlns="http://www.w3.org/2000/svg" width="12" height="12" viewBox="0 0 12 12" fill="none">
<path fill-rule="evenodd" clip-rule="evenodd" d="M11.8446 10.0625L9.20829 7.39221C9.63731 6.64305 9.86114 5.80995 9.86114 4.97064C9.86114 2.24753 7.64767 0.0311279 4.93057 0.0311279C2.21347 0.0311279 0 2.24753 0 4.97064C0 7.69374 2.21347 9.91015 4.93057 9.91015C5.79793 9.91015 6.65596 9.67079 7.42073 9.21383L10.0446 11.8748C10.1036 11.9338 10.1876 11.9711 10.2715 11.9711C10.3554 11.9711 10.4394 11.9369 10.4984 11.8748L11.8446 10.5132C11.9689 10.3858 11.9689 10.1868 11.8446 10.0625ZM4.93049 1.95527C6.59059 1.95527 7.93982 3.3075 7.93982 4.97058C7.93982 6.63366 6.59059 7.98589 4.93049 7.98589C3.27039 7.98589 1.92116 6.63366 1.92116 4.97058C1.92116 3.3075 3.27039 1.95527 4.93049 1.95527Z" fill="#596874"/>
</svg>