<svg xmlns="http://www.w3.org/2000/svg" width="16" height="16" viewBox="0 0 16 16" fill="none">
<path fill-rule="evenodd" clip-rule="evenodd" d="M2.78074 5.12308C3.41151 2.2 6.09997 0 9.3192 0C13.0115 0 16 2.88462 15.9884 6.44231C15.9884 7.72308 15.6 8.91923 14.9307 9.92308C14.9235 9.93339 14.916 9.94371 14.9085 9.95411C14.8879 9.98245 14.8669 10.0113 14.85 10.0423C14.7692 10.1808 14.7231 10.3423 14.7231 10.5115L15.3769 13.35L12.7384 12.3577C12.6192 12.3077 12.4884 12.2808 12.35 12.2808C12.2269 12.2808 12.1038 12.3038 11.9923 12.3462C11.9923 12.35 11.9884 12.35 11.9846 12.35C11.975 12.3538 11.9663 12.3577 11.9577 12.3615C11.949 12.3654 11.9404 12.3692 11.9307 12.3731C11.6346 12.4923 11.3269 12.5846 11.0154 12.6654C10.4731 12.8038 9.90767 12.8846 9.3192 12.8846C5.6269 12.8846 2.63843 10 2.63843 6.44231C2.63843 5.98846 2.68843 5.55 2.78074 5.12308ZM1.08077 13.5845C1.08077 13.4384 1.04231 13.3076 0.973077 13.1922C0.967308 13.1826 0.961538 13.1728 0.955769 13.1629C0.938461 13.1333 0.921154 13.1038 0.903846 13.0807C0.330769 12.223 0 11.1922 0 10.0999C0 8.48454 0.726923 7.03454 1.88077 6.03069C1.78846 6.45761 1.73846 6.89608 1.73846 7.34992C1.73846 10.9076 4.73077 13.7922 8.41923 13.7922C9.00385 13.7922 9.57308 13.7115 10.1154 13.573C9.06923 14.8076 7.48077 15.5961 5.7 15.5961C4.91154 15.5961 4.15769 15.4384 3.47308 15.1576C3.46538 15.1538 3.45769 15.1509 3.45 15.148C3.44231 15.1451 3.43462 15.1422 3.42692 15.1384H3.41923C3.32308 15.1038 3.21923 15.0845 3.11154 15.0845C2.99231 15.0845 2.88077 15.1076 2.77692 15.1499L0.615385 15.9999L1.08077 13.5845Z" fill="#5396F1"/>
</svg>