<svg width="12" height="12" viewBox="0 0 12 12" fill="none" xmlns="http://www.w3.org/2000/svg">
<path fill-rule="evenodd" clip-rule="evenodd" d="M11.8446 10.0626L9.20829 7.39233C9.63731 6.64317 9.86114 5.81007 9.86114 4.97076C9.86114 2.24766 7.64767 0.03125 4.93057 0.03125C2.21347 0.03125 0 2.24766 0 4.97076C0 7.69386 2.21347 9.91027 4.93057 9.91027C5.79793 9.91027 6.65596 9.67091 7.42073 9.21395L10.0446 11.8749C10.1036 11.9339 10.1876 11.9712 10.2715 11.9712C10.3554 11.9712 10.4394 11.9371 10.4984 11.8749L11.8446 10.5133C11.9689 10.3859 11.9689 10.1869 11.8446 10.0626ZM4.93049 1.95539C6.59059 1.95539 7.93982 3.30762 7.93982 4.9707C7.93982 6.63378 6.59059 7.98601 4.93049 7.98601C3.27039 7.98601 1.92116 6.63378 1.92116 4.9707C1.92116 3.30762 3.27039 1.95539 4.93049 1.95539Z" fill="#596874"/>
<mask id="mask0_1_2994" style="mask-type:luminance" maskUnits="userSpaceOnUse" x="0" y="0" width="12" height="12">
<path fill-rule="evenodd" clip-rule="evenodd" d="M11.8446 10.0626L9.20829 7.39233C9.63731 6.64317 9.86114 5.81007 9.86114 4.97076C9.86114 2.24766 7.64767 0.03125 4.93057 0.03125C2.21347 0.03125 0 2.24766 0 4.97076C0 7.69386 2.21347 9.91027 4.93057 9.91027C5.79793 9.91027 6.65596 9.67091 7.42073 9.21395L10.0446 11.8749C10.1036 11.9339 10.1876 11.9712 10.2715 11.9712C10.3554 11.9712 10.4394 11.9371 10.4984 11.8749L11.8446 10.5133C11.9689 10.3859 11.9689 10.1869 11.8446 10.0626ZM4.93049 1.95539C6.59059 1.95539 7.93982 3.30762 7.93982 4.9707C7.93982 6.63378 6.59059 7.98601 4.93049 7.98601C3.27039 7.98601 1.92116 6.63378 1.92116 4.9707C1.92116 3.30762 3.27039 1.95539 4.93049 1.95539Z" fill="white"/>
</mask>
<g mask="url(#mask0_1_2994)">
<rect width="12" height="12" fill="#596874"/>
</g>
</svg>
