<svg width="16" height="16" viewBox="0 0 16 16" fill="none" xmlns="http://www.w3.org/2000/svg">
<g id="Icon_Home">
<path id="Path 4" d="M15.1111 4.8118L9.77777 0.611229C9.28886 0.217612 8.65594 0 8 0C7.34406 0 6.71114 0.217612 6.22223 0.611229L0.888923 4.8118C0.607489 5.03804 0.382698 5.31554 0.229452 5.6259C0.0762056 5.93627 -0.00199357 6.27241 3.86157e-05 6.61205V13.5997C3.86157e-05 14.2363 0.280989 14.8468 0.781084 15.297C1.28118 15.7471 1.95945 16 2.66669 16H13.3333C14.0405 16 14.7188 15.7471 15.2189 15.297C15.719 14.8468 16 14.2363 16 13.5997V6.60738C16.002 6.26775 15.9238 5.9316 15.7705 5.62124C15.6173 5.31087 15.3925 5.03337 15.1111 4.80714V4.8118ZM9.77777 14.3991H6.22223V10.4032C6.22223 10.191 6.31588 9.98752 6.48258 9.83747C6.64928 9.68742 6.87537 9.60313 7.11112 9.60313H8.88888C9.12463 9.60313 9.35072 9.68742 9.51742 9.83747C9.68412 9.98752 9.77777 10.191 9.77777 10.4032V14.3991ZM14.2222 13.599C14.2222 13.8112 14.1285 14.0147 13.9618 14.1648C13.7951 14.3148 13.5691 14.3991 13.3333 14.3991H11.5555V10.4032C11.5555 9.76663 11.2746 9.1561 10.7745 8.70595C10.2744 8.2558 9.59613 8.00291 8.88888 8.00291H7.11112C6.40388 8.00291 5.7256 8.2558 5.22551 8.70595C4.72541 9.1561 4.44446 9.76663 4.44446 10.4032V14.3991H2.66669C2.43095 14.3991 2.20485 14.3148 2.03816 14.1648C1.87146 14.0147 1.77781 13.8112 1.77781 13.599V6.60738C1.77797 6.49378 1.805 6.38151 1.85711 6.27804C1.90922 6.17457 1.98521 6.08228 2.08003 6.0073L7.41334 1.81206C7.57555 1.68379 7.78408 1.61305 8 1.61305C8.21592 1.61305 8.42445 1.68379 8.58666 1.81206L13.92 6.0073C14.0148 6.08228 14.0908 6.17457 14.1429 6.27804C14.195 6.38151 14.222 6.49378 14.2222 6.60738V13.599Z" fill="#FFFFFF"/>
</g>
</svg>
