<svg xmlns="http://www.w3.org/2000/svg" width="48" height="23" viewBox="0 0 48 23" fill="none">
<path opacity="0.2" d="M5.35714 23C11.0772 23 15.7143 18.0964 15.7143 12.0476C15.7143 5.99876 11.0772 1.09521 5.35714 1.09521C-0.362949 1.09521 -5 5.99876 -5 12.0476C-5 18.0964 -0.362949 23 5.35714 23Z" fill="#FF705C"/>
<path opacity="0.2" d="M42.6429 23C48.363 23 53.0001 18.0964 53.0001 12.0476C53.0001 5.99876 48.363 1.09521 42.6429 1.09521C36.9228 1.09521 32.2858 5.99876 32.2858 12.0476C32.2858 18.0964 36.9228 23 42.6429 23Z" fill="#FF705C"/>
<path d="M32.5781 0H31.9932C31.0107 0 30.2142 1.00438 30.2142 2.24334V6.51855C30.2142 7.75751 31.0107 8.7619 31.9932 8.7619H32.5781C33.5606 8.7619 34.3571 7.75751 34.3571 6.51855V2.24334C34.3571 1.00438 33.5606 0 32.5781 0Z" fill="#5396F1"/>
<path d="M16.0066 0H15.4218C14.4393 0 13.6428 1.00438 13.6428 2.24334V6.51855C13.6428 7.75751 14.4393 8.7619 15.4218 8.7619H16.0066C16.9892 8.7619 17.7857 7.75751 17.7857 6.51855V2.24334C17.7857 1.00438 16.9892 0 16.0066 0Z" fill="#5396F1"/>
<path d="M24.8284 16.1512L27.759 13.8161C28.5576 13.1809 28.0264 12.0476 26.9323 12.0476H21.0676C19.9734 12.0476 19.4422 13.1809 20.2408 13.8161L23.1714 16.1512C23.6358 16.521 24.3605 16.521 24.8249 16.1512H24.8284Z" fill="#FFB74B" stroke="#5396F1" stroke-width="2" stroke-miterlimit="10"/>
</svg>