<svg xmlns="http://www.w3.org/2000/svg" width="24" height="21" viewBox="0 0 24 21" fill="none">
<path fill-rule="evenodd" clip-rule="evenodd" d="M17.9999 8.57136C19.4196 8.57136 20.5713 7.41957 20.5713 5.99993C20.5713 4.58029 19.4196 3.4285 17.9999 3.4285C16.5803 3.4285 15.4285 4.58029 15.4285 5.99993C15.4285 7.41957 16.5803 8.57136 17.9999 8.57136ZM22.5 0H1.5C0.664286 0 0 0.680357 0 1.51607V19.0554C0 19.8911 0.664286 20.5714 1.5 20.5714H22.5C23.3357 20.5714 24 19.8911 24 19.0554V1.51607C24 0.680357 23.3357 0 22.5 0ZM16.9767 10.591C16.816 10.4035 16.5696 10.2589 16.291 10.2589C16.0178 10.2589 15.825 10.3875 15.6053 10.5643L14.6035 11.4107C14.3946 11.5607 14.2285 11.6625 13.9875 11.6625C13.7571 11.6625 13.5482 11.5768 13.3982 11.4428C13.3446 11.3946 13.2482 11.3035 13.1678 11.2232L10.2857 8.10532C10.0714 7.85889 9.74996 7.70354 9.39103 7.70354C9.0321 7.70354 8.69996 7.88032 8.49103 8.12139L1.71425 16.2964V2.34104C1.76782 1.97675 2.05175 1.71425 2.41603 1.71425H21.5785C21.9482 1.71425 22.2482 1.98747 22.2696 2.35711L22.2857 16.3071L16.9767 10.591Z" fill="#596874"/>
</svg>