<svg width="48" height="48" viewBox="0 0 48 48" fill="none" xmlns="http://www.w3.org/2000/svg">
<g filter="url(#filter0_b_1_3005)">
<rect width="48" height="48" rx="12" fill="#5396F1"/>
<path fill-rule="evenodd" clip-rule="evenodd" d="M16.6667 29.4166H17.4667C17.6833 28.9708 18.1375 28.6666 18.6667 28.6666C19.1958 28.6666 19.65 28.9708 19.8667 29.4166H31.3333C31.7 29.4166 32 29.7166 32 30.0833C32 30.4499 31.7 30.7499 31.3333 30.7499H19.7708C19.5292 31.1041 19.125 31.3333 18.6667 31.3333C18.2083 31.3333 17.8042 31.1041 17.5625 30.7499H16.6667C16.3 30.7499 16 30.4499 16 30.0833C16 29.7166 16.3 29.4166 16.6667 29.4166ZM16.6667 25.4166H25.5375C25.775 25.0416 26.1917 24.7916 26.6667 24.7916C27.1417 24.7916 27.5583 25.0416 27.7958 25.4166H31.3333C31.7 25.4166 32 25.7166 32 26.0833C32 26.4499 31.7 26.7499 31.3333 26.7499H27.8458C27.6208 27.1708 27.1792 27.4583 26.6667 27.4583C26.1542 27.4583 25.7125 27.1708 25.4875 26.7499H16.6667C16.3 26.7499 16 26.4499 16 26.0833C16 25.7166 16.3 25.4166 16.6667 25.4166ZM20.1375 21.4166H16.6667C16.3 21.4166 16 21.7166 16 22.0833C16 22.4499 16.3 22.7499 16.6667 22.7499H20.1375C20.3667 23.1499 20.8 23.4166 21.2917 23.4166C21.7833 23.4166 22.2167 23.1499 22.4458 22.7499H31.3333C31.7 22.7499 32 22.4499 32 22.0833C32 21.7166 31.7 21.4166 31.3333 21.4166H22.4458C22.2167 21.0166 21.7833 20.7499 21.2917 20.7499C20.8 20.7499 20.3667 21.0166 20.1375 21.4166ZM28.1375 17.4166C28.3667 17.0166 28.8 16.7499 29.2917 16.7499C29.7833 16.7499 30.2167 17.0166 30.4458 17.4166H31.3333C31.7 17.4166 32 17.7166 32 18.0833C32 18.4499 31.7 18.7499 31.3333 18.7499H30.4458C30.2167 19.1499 29.7833 19.4166 29.2917 19.4166C28.8 19.4166 28.3667 19.1499 28.1375 18.7499H16.6667C16.3 18.7499 16 18.4499 16 18.0833C16 17.7166 16.3 17.4166 16.6667 17.4166H28.1375Z" fill="white"/>
<mask id="mask0_1_3005" style="mask-type:luminance" maskUnits="userSpaceOnUse" x="16" y="16" width="16" height="16">
<path fill-rule="evenodd" clip-rule="evenodd" d="M16.6667 29.4166H17.4667C17.6833 28.9708 18.1375 28.6666 18.6667 28.6666C19.1958 28.6666 19.65 28.9708 19.8667 29.4166H31.3333C31.7 29.4166 32 29.7166 32 30.0833C32 30.4499 31.7 30.7499 31.3333 30.7499H19.7708C19.5292 31.1041 19.125 31.3333 18.6667 31.3333C18.2083 31.3333 17.8042 31.1041 17.5625 30.7499H16.6667C16.3 30.7499 16 30.4499 16 30.0833C16 29.7166 16.3 29.4166 16.6667 29.4166ZM16.6667 25.4166H25.5375C25.775 25.0416 26.1917 24.7916 26.6667 24.7916C27.1417 24.7916 27.5583 25.0416 27.7958 25.4166H31.3333C31.7 25.4166 32 25.7166 32 26.0833C32 26.4499 31.7 26.7499 31.3333 26.7499H27.8458C27.6208 27.1708 27.1792 27.4583 26.6667 27.4583C26.1542 27.4583 25.7125 27.1708 25.4875 26.7499H16.6667C16.3 26.7499 16 26.4499 16 26.0833C16 25.7166 16.3 25.4166 16.6667 25.4166ZM20.1375 21.4166H16.6667C16.3 21.4166 16 21.7166 16 22.0833C16 22.4499 16.3 22.7499 16.6667 22.7499H20.1375C20.3667 23.1499 20.8 23.4166 21.2917 23.4166C21.7833 23.4166 22.2167 23.1499 22.4458 22.7499H31.3333C31.7 22.7499 32 22.4499 32 22.0833C32 21.7166 31.7 21.4166 31.3333 21.4166H22.4458C22.2167 21.0166 21.7833 20.7499 21.2917 20.7499C20.8 20.7499 20.3667 21.0166 20.1375 21.4166ZM28.1375 17.4166C28.3667 17.0166 28.8 16.7499 29.2917 16.7499C29.7833 16.7499 30.2167 17.0166 30.4458 17.4166H31.3333C31.7 17.4166 32 17.7166 32 18.0833C32 18.4499 31.7 18.7499 31.3333 18.7499H30.4458C30.2167 19.1499 29.7833 19.4166 29.2917 19.4166C28.8 19.4166 28.3667 19.1499 28.1375 18.7499H16.6667C16.3 18.7499 16 18.4499 16 18.0833C16 17.7166 16.3 17.4166 16.6667 17.4166H28.1375Z" fill="white"/>
</mask>
<g mask="url(#mask0_1_3005)">
<rect x="16" y="32" width="16" height="16" transform="rotate(-90 16 32)" fill="white"/>
</g>
</g>
<defs>
<filter id="filter0_b_1_3005" x="-8" y="-8" width="64" height="64" filterUnits="userSpaceOnUse" color-interpolation-filters="sRGB">
<feFlood flood-opacity="0" result="BackgroundImageFix"/>
<feGaussianBlur in="BackgroundImageFix" stdDeviation="4"/>
<feComposite in2="SourceAlpha" operator="in" result="effect1_backgroundBlur_1_3005"/>
<feBlend mode="normal" in="SourceGraphic" in2="effect1_backgroundBlur_1_3005" result="shape"/>
</filter>
</defs>
</svg>
