<svg xmlns="http://www.w3.org/2000/svg" width="177" height="178" viewBox="0 0 177 178" fill="none">
  <g filter="url(#filter0_d_43716_184)">
    <path d="M45.0029 39.2763C40.3996 47.3795 35.8925 55.5168 31.7433 63.8005C29.6588 67.9338 27.6968 72.125 25.8642 76.3435C25.4035 77.399 24.9727 78.4612 24.5319 79.5201C24.1143 80.5892 23.6769 81.6481 23.2858 82.7205C22.4772 84.8587 21.7249 87.0071 21.0654 89.1691C20.4026 91.3277 19.8293 93.4999 19.4017 95.6619C18.9742 97.8205 18.6561 99.9791 18.5997 102.07C18.5235 104.17 18.7091 106.148 19.1963 108.045C19.4415 108.991 19.7431 109.877 20.1143 110.653C20.4888 111.429 20.9328 112.076 21.4167 112.597C21.9072 113.114 22.4507 113.492 23.0671 113.785C23.6968 114.061 24.3994 114.265 25.2047 114.35C26.8087 114.531 28.701 114.32 30.6298 113.867C32.5652 113.414 34.5437 112.72 36.5122 111.916C38.4808 111.102 40.446 110.169 42.3914 109.158C46.2954 107.153 50.1397 104.865 53.9343 102.458C57.7256 100.037 61.487 97.5175 65.222 94.9299C68.9602 92.3423 72.662 89.6764 76.3705 87.0003C80.0855 84.331 83.7907 81.6276 87.5057 78.9175L93.0932 74.8556L98.7338 70.8313C102.512 68.1585 106.323 65.5063 110.227 62.9255C114.141 60.3549 118.141 57.8695 122.413 55.5883C124.56 54.4545 126.771 53.3753 129.19 52.4424C130.403 51.9793 131.672 51.5537 133.054 51.2133C133.396 51.1247 133.763 51.0532 134.118 50.9783C134.496 50.917 134.85 50.8421 135.248 50.7979L135.828 50.7298L136.378 50.6821C136.743 50.6515 137.114 50.6413 137.482 50.6242C140.445 50.5425 143.513 51.1418 146.251 52.3675C148.998 53.5829 151.394 55.3636 153.379 57.3724C155.368 59.388 156.988 61.6215 158.331 63.9401C159.679 66.2587 160.753 68.6659 161.638 71.1104C163.391 76.003 164.369 81.0454 164.79 86.1082C165.194 91.1711 165.025 96.2713 164.2 101.317C163.378 106.356 161.877 111.358 159.457 116.032C158.244 118.365 156.796 120.608 155.079 122.665C153.369 124.725 151.381 126.59 149.174 128.157C146.963 129.712 144.541 130.972 142.012 131.84C141.697 131.949 141.379 132.058 141.061 132.15L140.584 132.297L140.04 132.446C139.308 132.634 138.572 132.77 137.84 132.862C136.375 133.046 134.937 133.042 133.555 132.92C130.787 132.671 128.249 131.96 125.876 131.091C123.503 130.216 121.279 129.161 119.145 128.034C114.877 125.777 110.949 123.192 107.095 120.646C103.248 118.099 99.4894 115.518 95.6981 113.315C93.8124 112.219 91.9068 111.215 90.0542 110.503C89.1296 110.152 88.2216 109.877 87.3831 109.73C86.5446 109.584 85.7924 109.574 85.2091 109.7C84.9141 109.761 84.6556 109.853 84.4104 109.975C84.2911 110.043 84.1685 110.108 84.0558 110.193C84.0061 110.224 83.91 110.306 83.8337 110.36C83.7509 110.421 83.678 110.489 83.5984 110.554C82.9754 111.082 82.4319 111.732 81.9348 112.495C80.9406 114.017 80.2214 116.015 79.5719 118.17C78.9124 120.329 78.3357 122.668 77.431 125.038C76.9803 126.219 76.45 127.414 75.7872 128.569C75.1244 129.723 74.3257 130.833 73.3812 131.813C72.4367 132.794 71.3596 133.642 70.1864 134.309C69.0133 134.98 67.7506 135.449 66.478 135.746C63.9262 136.338 61.381 136.229 58.9982 135.807C54.216 134.908 49.9342 132.893 45.8977 130.611C43.8794 129.461 41.9341 128.201 40.0252 126.897C39.074 126.243 38.1295 125.576 37.1983 124.895C36.2703 124.21 35.3523 123.506 34.4443 122.798C35.4385 123.373 36.4427 123.931 37.4501 124.479C38.4543 125.034 39.4618 125.576 40.4792 126.097C42.5074 127.145 44.572 128.116 46.6533 129.008C48.7345 129.9 50.8489 130.683 52.9798 131.313C55.1108 131.939 57.2715 132.402 59.4025 132.562C61.5268 132.726 63.6279 132.586 65.4871 131.953C67.3463 131.333 68.9238 130.213 70.1268 128.729C71.3265 127.251 72.1252 125.402 72.7151 123.349C73.3083 121.293 73.7225 119.056 74.2495 116.696C74.7897 114.347 75.4227 111.814 76.7748 109.311C77.4475 108.069 78.3225 106.853 79.3896 105.811C79.5255 105.682 79.6547 105.549 79.7972 105.427C79.943 105.301 80.059 105.185 80.2413 105.045C80.576 104.77 80.9373 104.524 81.3084 104.296C82.0574 103.85 82.8694 103.51 83.6813 103.295C85.3118 102.856 86.8827 102.87 88.2945 103.043C89.7162 103.224 91.012 103.568 92.2415 103.973C94.6972 104.793 96.9011 105.852 99.0287 106.962C103.257 109.213 107.168 111.698 111.069 114.071C114.959 116.448 118.824 118.746 122.714 120.663C124.66 121.613 126.612 122.457 128.547 123.104C130.479 123.747 132.398 124.187 134.181 124.282C135.069 124.33 135.921 124.296 136.716 124.17C137.114 124.105 137.498 124.02 137.866 123.911L138.145 123.822L138.483 123.707C138.708 123.635 138.93 123.547 139.152 123.465C140.928 122.794 142.589 121.882 144.11 120.755C147.149 118.497 149.591 115.338 151.368 111.698C153.154 108.058 154.291 103.976 154.914 99.7816C155.53 95.5836 155.606 91.2528 155.195 86.9969C154.781 82.741 153.863 78.5429 152.418 74.6684C150.983 70.8074 148.962 67.2393 146.407 64.7164C145.134 63.4566 143.749 62.4863 142.3 61.8666C140.852 61.2436 139.341 60.9644 137.747 61.0189C137.548 61.0325 137.349 61.0359 137.147 61.0563L136.845 61.0835L136.577 61.121C136.408 61.138 136.206 61.1891 136.02 61.2197C135.818 61.2708 135.626 61.3014 135.414 61.3593C134.582 61.567 133.681 61.8666 132.763 62.2241C130.92 62.9425 129.008 63.8788 127.112 64.8934C123.304 66.9397 119.52 69.3366 115.751 71.7982C111.98 74.2632 108.235 76.8406 104.494 79.4588L93.2656 87.3816C89.5107 90.0305 85.7493 92.6896 81.958 95.3282C78.1634 97.9601 74.3257 100.551 70.4482 103.101C66.5675 105.648 62.637 108.147 58.5938 110.51C54.554 112.876 50.428 115.147 46.1031 117.17C43.9391 118.171 41.7186 119.107 39.422 119.934C37.1187 120.755 34.7425 121.476 32.2106 121.95C29.6853 122.413 26.9678 122.658 24.0514 122.154C22.6031 121.909 21.1019 121.419 19.6868 120.663C18.275 119.897 16.9725 118.831 15.9518 117.598C14.9278 116.366 14.1556 115.004 13.5988 113.646C13.0421 112.284 12.6709 110.922 12.419 109.584C11.9087 106.911 11.8523 104.167 12.1141 101.6C12.6278 96.4382 14.1125 91.7362 15.8458 87.242C16.7207 84.9983 17.6552 82.7954 18.6826 80.6505C19.1797 79.5678 19.7232 78.5157 20.2402 77.45C20.7837 76.398 21.3173 75.3425 21.874 74.3041C24.0911 70.1367 26.4938 66.1055 28.9728 62.139C31.4682 58.1827 34.0598 54.3047 36.731 50.4915C38.0765 48.5916 39.4353 46.702 40.8172 44.8328C42.1793 42.95 43.5911 41.1046 44.9996 39.2593L45.0029 39.2763Z" fill="url(#paint0_linear_43716_184)"/>
    <path d="M37.0166 24.333C36.9072 23.2877 36.8111 22.2425 36.7316 21.1972C36.6487 20.152 36.5758 19.1101 36.5129 18.0683C36.44 17.0265 36.3936 15.9846 36.3405 14.9428C36.2809 13.9009 36.2477 12.8625 36.2047 11.8206L39.6447 13.0668C35.1077 21.2177 30.6337 29.3822 26.4414 37.6284C25.4008 39.6951 24.3569 41.7515 23.3627 43.8284C22.3585 45.8985 21.4041 47.989 20.4562 50.0693C18.5772 54.2332 16.877 58.4585 15.505 62.6463C14.8323 64.7402 14.2589 66.8341 13.8911 68.8531C13.7121 69.8609 13.5696 70.8449 13.5066 71.7744C13.4437 72.697 13.4536 73.5686 13.5564 74.2836C13.6525 74.9986 13.8447 75.5332 14.0236 75.8055C14.1098 75.9451 14.196 76.0371 14.2722 76.1018C14.3484 76.163 14.4147 76.2005 14.5208 76.2516C14.7262 76.3435 15.167 76.4831 15.8331 76.5205C16.4959 76.5614 17.3278 76.5069 18.2226 76.3707C20.0221 76.0984 22.0337 75.5332 24.0653 74.8659C26.1034 74.1917 28.1979 73.4427 30.3189 72.646C34.5708 71.0696 38.9156 69.3196 43.5818 67.9475C45.9182 67.2597 48.3308 66.6435 50.8992 66.2315C53.4643 65.8331 56.205 65.605 59.1711 66.0204C60.6492 66.2281 62.1836 66.606 63.6981 67.2393C65.2093 67.8692 66.6808 68.7612 67.97 69.8882C69.2591 71.0117 70.3528 72.3464 71.1912 73.7457C72.0429 75.1416 72.6494 76.5989 73.0968 78.0254C73.9916 80.8888 74.2998 83.65 74.3959 86.3023C74.4887 88.958 74.3396 91.5183 74.0579 94.0208C73.4812 99.0189 72.4837 103.803 71.231 108.47C70.6113 110.806 69.9385 113.111 69.2293 115.399C68.5101 117.684 67.7413 119.941 66.9525 122.185C65.3784 126.675 63.6219 131.078 61.8191 135.446C58.1603 144.159 54.1271 152.66 49.8056 160.998L47.8171 159.555L50.3358 157.532L52.8645 155.52C54.5546 154.182 56.2547 152.858 57.9714 151.554C56.5895 153.229 55.1876 154.88 53.7725 156.521L51.6482 158.976L49.5139 161.421L45.5139 166L47.5255 159.977C50.4982 151.081 53.4345 142.198 56.1189 133.281C57.4843 128.831 58.737 124.357 59.9334 119.893C60.5233 117.66 61.0767 115.419 61.6003 113.183C62.1339 110.949 62.6277 108.709 63.0618 106.475C63.9169 102.005 64.646 97.5345 64.9044 93.1696C65.0238 90.994 65.0668 88.8456 64.9177 86.8096C64.7719 84.777 64.4372 82.8397 63.8605 81.2463C63.718 80.8479 63.5622 80.47 63.3899 80.1261C63.2209 79.7755 63.0453 79.4554 62.853 79.1626C62.4786 78.5702 62.0577 78.1071 61.5937 77.7224C60.6658 76.9598 59.4694 76.4865 57.8786 76.3026C56.3011 76.1256 54.4287 76.2414 52.4867 76.5648C50.5347 76.8917 48.5031 77.416 46.4517 78.0425C42.339 79.3158 38.1235 80.899 33.7688 82.4992C31.5849 83.2891 29.3644 84.1029 27.028 84.8042C24.6883 85.5022 22.2657 86.1593 19.5283 86.5134C18.1563 86.6836 16.6948 86.779 15.0742 86.6428C14.2623 86.5679 13.4105 86.4385 12.5224 86.1934C11.6375 85.9516 10.7129 85.5873 9.81478 85.0732C8.91998 84.5591 8.06164 83.885 7.33586 83.1087C6.61008 82.3324 6.01355 81.4676 5.5529 80.579C4.62496 78.7881 4.24716 76.9972 4.08808 75.3834C3.93232 73.7593 4.00192 72.2681 4.15105 70.8551C4.30349 69.4421 4.54874 68.1075 4.85694 66.8205C5.47004 64.2499 6.27205 61.853 7.15359 59.531C8.91336 54.887 11.0642 50.5698 13.3045 46.3479C14.4213 44.237 15.6111 42.1737 16.8075 40.1275C18.0105 38.0847 19.2267 36.0554 20.4861 34.0603C25.5102 26.0694 30.9055 18.3986 36.5228 10.9184L41.7159 4L39.9562 12.1679C39.7374 13.1825 39.5254 14.2005 39.2901 15.2151C39.0581 16.2298 38.836 17.2444 38.5842 18.259C38.3455 19.2736 38.0937 20.2882 37.8352 21.2994C37.5767 22.3106 37.3049 23.3218 37.0166 24.333Z" fill="url(#paint1_linear_43716_184)"/>
  </g>
  <defs>
    <filter id="filter0_d_43716_184" x="0" y="0" width="177" height="178" filterUnits="userSpaceOnUse" color-interpolation-filters="sRGB">
      <feFlood flood-opacity="0" result="BackgroundImageFix"/>
      <feColorMatrix in="SourceAlpha" type="matrix" values="0 0 0 0 0 0 0 0 0 0 0 0 0 0 0 0 0 0 127 0" result="hardAlpha"/>
      <feOffset dx="4" dy="4"/>
      <feGaussianBlur stdDeviation="4"/>
      <feColorMatrix type="matrix" values="0 0 0 0 0 0 0 0 0 0 0 0 0 0 0 0 0 0 0.15 0"/>
      <feBlend mode="normal" in2="BackgroundImageFix" result="effect1_dropShadow_43716_184"/>
      <feBlend mode="normal" in="SourceGraphic" in2="effect1_dropShadow_43716_184" result="shape"/>
    </filter>
    <linearGradient id="paint0_linear_43716_184" x1="85.2952" y1="31.9289" x2="90.7407" y2="138.21" gradientUnits="userSpaceOnUse">
      <stop offset="0.25" stop-color="#5396F1"/>
      <stop offset="0.75" stop-color="#FF705C"/>
    </linearGradient>
    <linearGradient id="paint1_linear_43716_184" x1="34.9321" y1="-7.58967" x2="44.6058" y2="181.197" gradientUnits="userSpaceOnUse">
      <stop offset="0.25" stop-color="#5396F1"/>
      <stop offset="0.75" stop-color="#FF705C"/>
    </linearGradient>
  </defs>
</svg>