<svg width="26" height="26" viewBox="0 0 26 26" fill="none" xmlns="http://www.w3.org/2000/svg">
<g id="Icon_Socks">
<path id="Vector" d="M17.404 19.148C17.404 15.9918 19.4245 13.4274 21.9565 13.3025C21.9186 13.3025 21.8807 13.2893 21.8365 13.2893H13.6408V1.6904C13.6408 1.30903 13.3251 1 12.9336 1H1.70717C1.3157 1 1 1.30903 1 1.6904V22.8564C1 24.04 1.98499 25 3.19729 25H22.0891C22.0891 25 22.108 25 22.1143 25C19.5129 24.9737 17.4103 22.3633 17.4103 19.148H17.404Z" stroke="white" stroke-width="2" stroke-miterlimit="10"/>
<path id="Vector_2" d="M24.9936 22.1724V16.3663C24.9936 14.7159 23.6361 13.368 21.9629 13.3022C19.4309 13.4272 17.4104 15.9916 17.4104 19.1477C17.4104 22.3039 19.513 24.9735 22.1144 24.9998C23.7119 24.9866 24.9999 23.7242 24.9999 22.1658L24.9936 22.1724Z" stroke="white" stroke-width="2" stroke-miterlimit="10"/>
<path id="Vector_3" d="M4.16334 5.62889L4.11914 1.31543" stroke="white" stroke-width="2" stroke-linecap="round" stroke-linejoin="round"/>
<path id="Vector_4" d="M7.3206 5.62889L7.28271 1.31543" stroke="white" stroke-width="2" stroke-linecap="round" stroke-linejoin="round"/>
<path id="Vector_5" d="M10.4839 5.62889L10.4397 1.31543" stroke="white" stroke-width="2" stroke-linecap="round" stroke-linejoin="round"/>
</g>
</svg>
