<svg width="26" height="26" viewBox="0 0 26 26" fill="none" xmlns="http://www.w3.org/2000/svg">
<g id="Icon_Weight">
<path id="Vector" d="M20.5877 1H5.41232C2.97547 1 1 2.83434 1 5.09713V20.9029C1 23.1657 2.97547 25 5.41232 25H20.5877C23.0245 25 25 23.1657 25 20.9029V5.09713C25 2.83434 23.0245 1 20.5877 1Z" stroke="white" stroke-width="2" stroke-miterlimit="10"/>
<path id="Vector_2" d="M9.30158 4.14307H16.077C18.28 4.14307 20.0708 5.80592 20.0708 7.85163C20.0708 8.97163 19.0924 9.87451 17.8924 9.87451H7.48621C6.28005 9.87451 5.30774 8.96592 5.30774 7.85163C5.30774 5.80592 7.0985 4.14307 9.30158 4.14307Z" stroke="white" stroke-miterlimit="10"/>
<path id="Vector_3" d="M11.7299 9.63572C11.6359 9.89537 11.7702 10.1821 12.0299 10.2761C12.2895 10.37 12.5762 10.2357 12.6702 9.9761L11.7299 9.63572ZM12.7145 6.91575L11.7299 9.63572L12.6702 9.9761L13.6548 7.25612L12.7145 6.91575Z" fill="white"/>
<path id="Vector_4" d="M13.6923 20.3545C13.6923 19.8022 13.2445 19.3545 12.6923 19.3545C12.14 19.3545 11.6923 19.8022 11.6923 20.3545H13.6923ZM11.6923 20.3545V25.0002H13.6923V20.3545H11.6923Z" fill="white"/>
<path id="Vector_5" d="M18 20.3545C18 19.8022 17.5523 19.3545 17 19.3545C16.4477 19.3545 16 19.8022 16 20.3545H18ZM16 20.3545V25.0002H18V20.3545H16Z" fill="white"/>
<path id="Vector_6" d="M9.38464 20.3545C9.38464 19.8022 8.93693 19.3545 8.38464 19.3545C7.83236 19.3545 7.38464 19.8022 7.38464 20.3545H9.38464ZM7.38464 20.3545V25.0002H9.38464V20.3545H7.38464Z" fill="white"/>
</g>
</svg>
