<svg width="52" height="41" viewBox="0 0 52 41" fill="none" xmlns="http://www.w3.org/2000/svg">
<path d="M10.8086 5.41284C7.95056 1.18085 3.66348 0.764068 1.8772 1.08467V41H51V30.9009C49.6603 30.5803 46.2663 29.8429 43.4083 29.4582C39.8357 28.9773 41.1754 23.6873 38.496 22.7255C35.8166 21.7637 36.7097 19.8401 34.0303 18.8783C31.3509 17.9164 25.992 21.7637 23.3126 18.8783C20.6332 15.9928 20.6332 16.9546 14.8278 17.9164C9.02233 18.8783 14.3812 10.7028 10.8086 5.41284Z" fill="url(#paint0_linear_1_2629)"/>
<path d="M1 1.08467C2.78628 0.764068 7.07337 1.18085 9.93142 5.41284C13.504 10.7028 8.14514 18.8783 13.9506 17.9164C19.756 16.9546 19.756 15.9928 22.4354 18.8783C25.1148 21.7637 30.4737 17.9164 33.1531 18.8783C35.8325 19.8401 34.9394 21.7637 37.6188 22.7255C40.2982 23.6873 38.9585 28.9773 42.5311 29.4582C45.3892 29.8429 48.7831 30.5803 50.1228 30.9009" stroke="#5396F1" stroke-width="2" stroke-linecap="round"/>
<defs>
<linearGradient id="paint0_linear_1_2629" x1="38.0494" y1="4.84726" x2="10.2301" y2="47.7486" gradientUnits="userSpaceOnUse">
<stop stop-color="#5396F1" stop-opacity="0.3"/>
<stop offset="1" stop-color="#5396F1" stop-opacity="0"/>
</linearGradient>
</defs>
</svg>
