<svg width="52" height="41" viewBox="0 0 52 41" fill="none" xmlns="http://www.w3.org/2000/svg">
<path d="M6.45455 17.8902C4.18182 19.9364 2.81818 24.1993 1 24.5404V41H51V1.00905C49.6364 0.66802 46.1818 10.6262 43.2727 10.217C39.6364 9.70541 41 22.5842 38.2727 21.5611C35.5455 20.538 32.3636 26.075 29.6364 25.0519C26.9091 24.0288 25.358 16.0414 22.8182 12.7747C19.6364 8.68231 19.1818 14.3094 13.2727 15.3325C7.36364 16.3556 8.61356 15.9464 6.45455 17.8902Z" fill="url(#paint0_linear_1_2607)" fill-opacity="0.3"/>
<path d="M1 24.5403C2.81818 24.1993 5.19463 17.1427 10.0909 16.3555C16.4545 15.3324 17.3636 12.7747 19.1818 12.2631C25.1797 10.5755 24.4372 15.7788 25.5455 19.9364C26.9091 25.0519 30.5455 25.5634 31 25.5634C33.8748 25.5634 35.0909 20.9595 38.2727 21.5611C41.8348 22.2346 39.6364 9.19383 43.2727 9.70538C46.1818 10.1146 49.1818 0.667985 50.5455 1.00902" stroke="#FF705C" stroke-width="2" stroke-linecap="round"/>
<defs>
<linearGradient id="paint0_linear_1_2607" x1="37.8182" y1="3.05522" x2="5.78534" y2="47.1732" gradientUnits="userSpaceOnUse">
<stop stop-color="#FF705C"/>
<stop offset="1" stop-color="#FF705C" stop-opacity="0"/>
</linearGradient>
</defs>
</svg>
