<svg width="48" height="48" viewBox="0 0 48 48" fill="none" xmlns="http://www.w3.org/2000/svg">
<rect width="48" height="48" rx="12" fill="#FF9508"/>
<path d="M31.5877 12H16.4123C13.9755 12 12 13.8343 12 16.0971V31.9029C12 34.1657 13.9755 36 16.4123 36H31.5877C34.0245 36 36 34.1657 36 31.9029V16.0971C36 13.8343 34.0245 12 31.5877 12Z" stroke="white" stroke-width="2" stroke-miterlimit="10"/>
<path d="M20.3016 15.1431H27.077C29.28 15.1431 31.0708 16.8059 31.0708 18.8516C31.0708 19.9716 30.0924 20.8745 28.8924 20.8745H18.4862C17.2801 20.8745 16.3077 19.9659 16.3077 18.8516C16.3077 16.8059 18.0985 15.1431 20.3016 15.1431Z" stroke="white" stroke-miterlimit="10"/>
<path d="M22.7299 20.6357C22.6359 20.8954 22.7702 21.1821 23.0299 21.2761C23.2895 21.37 23.5762 21.2357 23.6702 20.9761L22.7299 20.6357ZM23.7145 17.9158L22.7299 20.6357L23.6702 20.9761L24.6548 18.2561L23.7145 17.9158Z" fill="white"/>
<path d="M24.6923 31.3545C24.6923 30.8022 24.2445 30.3545 23.6923 30.3545C23.14 30.3545 22.6923 30.8022 22.6923 31.3545H24.6923ZM22.6923 31.3545V36.0002H24.6923V31.3545H22.6923Z" fill="white"/>
<path d="M29 31.3545C29 30.8022 28.5523 30.3545 28 30.3545C27.4477 30.3545 27 30.8022 27 31.3545H29ZM27 31.3545V36.0002H29V31.3545H27Z" fill="white"/>
<path d="M20.3846 31.3545C20.3846 30.8022 19.9369 30.3545 19.3846 30.3545C18.8324 30.3545 18.3846 30.8022 18.3846 31.3545H20.3846ZM18.3846 31.3545V36.0002H20.3846V31.3545H18.3846Z" fill="white"/>
</svg>
