<svg width="48" height="48" viewBox="0 0 48 48" fill="none" xmlns="http://www.w3.org/2000/svg">
<rect width="48" height="48" rx="12" fill="#FF705C"/>
<path d="M35.25 15.25C33.8625 14.8125 32.3375 14.625 30.875 14.625C28.4375 14.625 25.8125 15.125 24 16.5C22.1875 15.125 19.5625 14.625 17.125 14.625C14.6875 14.625 12.0625 15.125 10.25 16.5V34.8125C10.25 35.125 10.5625 35.4375 10.875 35.4375C11 35.4375 11.0625 35.375 11.1875 35.375C12.875 34.5625 15.3125 34 17.125 34C19.5625 34 22.1875 34.5 24 35.875C25.6875 34.8125 28.75 34 30.875 34C32.9375 34 35.0625 34.375 36.8125 35.3125C36.9375 35.375 37 35.375 37.125 35.375C37.4375 35.375 37.75 35.0625 37.75 34.75V16.5C37 15.9375 36.1875 15.5625 35.25 15.25ZM35.25 32.125C33.875 31.6875 32.375 31.5 30.875 31.5C28.75 31.5 25.6875 32.3125 24 33.375V19C25.6875 17.9375 28.75 17.125 30.875 17.125C32.375 17.125 33.875 17.3125 35.25 17.75V32.125Z" fill="white"/>
<path d="M30.875 22.125C31.975 22.125 33.0375 22.2375 34 22.45V20.55C33.0125 20.3625 31.95 20.25 30.875 20.25C28.75 20.25 26.825 20.6125 25.25 21.2875V23.3625C26.6625 22.5625 28.625 22.125 30.875 22.125Z" fill="white"/>
<path d="M25.25 24.6125V26.6875C26.6625 25.8875 28.625 25.45 30.875 25.45C31.975 25.45 33.0375 25.5625 34 25.775V23.875C33.0125 23.6875 31.95 23.575 30.875 23.575C28.75 23.575 26.825 23.95 25.25 24.6125Z" fill="white"/>
<path d="M30.875 26.9125C28.75 26.9125 26.825 27.275 25.25 27.95V30.025C26.6625 29.225 28.625 28.7875 30.875 28.7875C31.975 28.7875 33.0375 28.9 34 29.1125V27.2125C33.0125 27.0125 31.95 26.9125 30.875 26.9125Z" fill="white"/>
</svg>
