<svg width="52" height="52" viewBox="0 0 52 52" fill="none" xmlns="http://www.w3.org/2000/svg">
<rect width="52" height="52" rx="12" fill="#002448"/>
<path d="M40 17.3664L33.56 12L31.754 14.1271L38.194 19.4935L40 17.3664ZM20.232 14.1271L18.44 12L12 17.3525L13.806 19.4796L20.232 14.1271ZM26.7 20.5362H24.6V28.8779L31.25 32.8401L32.3 31.1301L26.7 27.8352V20.5362ZM26 14.9752C19.042 14.9752 13.4 20.578 13.4 27.4876C13.4 34.3972 19.028 40 26 40C32.958 40 38.6 34.3972 38.6 27.4876C38.6 20.578 32.958 14.9752 26 14.9752ZM26 37.2195C20.582 37.2195 16.2 32.8679 16.2 27.4876C16.2 22.1073 20.582 17.7557 26 17.7557C31.418 17.7557 35.8 22.1073 35.8 27.4876C35.8 32.8679 31.418 37.2195 26 37.2195Z" fill="white"/>
</svg>
