<svg width="48" height="48" viewBox="0 0 48 48" fill="none" xmlns="http://www.w3.org/2000/svg">
<rect width="48" height="48" rx="12" fill="#53CC5F"/>
<path d="M28.404 30.148C28.404 26.9918 30.4245 24.4274 32.9565 24.3025C32.9186 24.3025 32.8807 24.2893 32.8365 24.2893H24.6408V12.6904C24.6408 12.309 24.3251 12 23.9336 12H12.7072C12.3157 12 12 12.309 12 12.6904V33.8564C12 35.04 12.985 36 14.1973 36H33.0891C33.0891 36 33.108 36 33.1143 36C30.5129 35.9737 28.4103 33.3633 28.4103 30.148H28.404Z" stroke="white" stroke-width="2" stroke-miterlimit="10"/>
<path d="M35.9936 33.1724V27.3663C35.9936 25.7159 34.6361 24.368 32.9629 24.3022C30.4309 24.4272 28.4104 26.9916 28.4104 30.1477C28.4104 33.3039 30.513 35.9735 33.1144 35.9998C34.7119 35.9866 35.9999 34.7242 35.9999 33.1658L35.9936 33.1724Z" stroke="white" stroke-width="2" stroke-miterlimit="10"/>
<path d="M15.1633 16.6289L15.1191 12.3154" stroke="white" stroke-width="2" stroke-linecap="round" stroke-linejoin="round"/>
<path d="M18.3206 16.6289L18.2827 12.3154" stroke="white" stroke-width="2" stroke-linecap="round" stroke-linejoin="round"/>
<path d="M21.4839 16.6289L21.4397 12.3154" stroke="white" stroke-width="2" stroke-linecap="round" stroke-linejoin="round"/>
</svg>
