<svg width="48" height="48" viewBox="0 0 48 48" fill="none" xmlns="http://www.w3.org/2000/svg">
<rect width="48" height="48" rx="12" fill="#002448"/>
<path d="M31.5877 12H16.4123C13.9755 12 12 13.8343 12 16.0971V31.9029C12 34.1657 13.9755 36 16.4123 36H31.5877C34.0245 36 36 34.1657 36 31.9029V16.0971C36 13.8343 34.0245 12 31.5877 12Z" stroke="white" stroke-width="2" stroke-miterlimit="10"/>
<path d="M20.3015 15.1431H27.0768C29.2799 15.1431 31.0707 16.8059 31.0707 18.8516C31.0707 19.9716 30.0922 20.8745 28.8922 20.8745H18.4861C17.2799 20.8745 16.3076 19.9659 16.3076 18.8516C16.3076 16.8059 18.0984 15.1431 20.3015 15.1431Z" stroke="white" stroke-miterlimit="10"/>
<path d="M22.7301 20.6357C22.6361 20.8954 22.7704 21.1821 23.03 21.2761C23.2897 21.37 23.5763 21.2357 23.6703 20.9761L22.7301 20.6357ZM23.7147 17.9158L22.7301 20.6357L23.6703 20.9761L24.6549 18.2561L23.7147 17.9158Z" fill="white"/>
<path d="M24.6924 31.3545C24.6924 30.8022 24.2447 30.3545 23.6924 30.3545C23.1401 30.3545 22.6924 30.8022 22.6924 31.3545H24.6924ZM22.6924 31.3545V36.0002H24.6924V31.3545H22.6924Z" fill="white"/>
<path d="M29 31.3545C29 30.8022 28.5523 30.3545 28 30.3545C27.4477 30.3545 27 30.8022 27 31.3545H29ZM27 31.3545V36.0002H29V31.3545H27Z" fill="white"/>
<path d="M20.3845 31.3545C20.3845 30.8022 19.9368 30.3545 19.3845 30.3545C18.8322 30.3545 18.3845 30.8022 18.3845 31.3545H20.3845ZM18.3845 31.3545V36.0002H20.3845V31.3545H18.3845Z" fill="white"/>
</svg>
